<svg width="173" height="90" viewBox="0 0 173 90" fill="none" xmlns="http://www.w3.org/2000/svg">
<rect width="173" height="90" rx="45" fill="#D9D9D9"/>
<path d="M118.183 35.4383L108.36 31.596C105.536 30.4911 103.447 28.0936 102.773 25.1839L100.431 15.0634C98.7344 7.73546 89.2145 5.49874 84.3205 11.2764L77.5617 19.2572C75.6193 21.5526 72.6486 22.7613 69.6223 22.4901L59.0931 21.5492C51.4686 20.8678 46.3592 29.063 50.4461 35.4165L56.0916 44.1926C57.7147 46.7156 57.9695 49.8615 56.7713 52.6038L52.6068 62.1433C49.5907 69.0494 55.9525 76.3522 63.3718 74.5005L73.6198 71.9424C76.5656 71.2074 79.6916 71.9424 81.9796 73.9062L89.9366 80.7419C95.6964 85.6908 104.737 82.0093 105.237 74.5106L105.925 64.154C106.123 61.1756 107.8 58.4852 110.412 56.9567L119.494 51.6428C126.068 47.7988 125.293 38.2208 118.183 35.4383Z" fill="url(#paint0_linear_0_1)"/>
<defs>
<linearGradient id="paint0_linear_0_1" x1="86.5" y1="8" x2="86.5" y2="83" gradientUnits="userSpaceOnUse">
<stop stop-color="#FF8A00"/>
<stop offset="1" stop-color="#FF0000"/>
</linearGradient>
</defs>
</svg>
